<mxfile host="app.diagrams.net" modified="2024-06-18T21:56:39.145Z" agent="Mozilla/5.0 (Windows NT 10.0; Win64; x64) AppleWebKit/537.36 (KHTML, like Gecko) Chrome/126.0.0.0 Safari/537.36" etag="A68ZylFQ-ZC1vtigOxyK" version="24.5.5" type="google">
  <diagram name="Page-1" id="e7e014a7-5840-1c2e-5031-d8a46d1fe8dd">
    <mxGraphModel grid="1" page="1" gridSize="10" guides="1" tooltips="1" connect="1" arrows="1" fold="1" pageScale="1" pageWidth="1169" pageHeight="826" background="none" math="0" shadow="0">
      <root>
        <mxCell id="0" />
        <mxCell id="1" parent="0" />
        <mxCell id="2" value="Recolector y visitadora" style="swimlane;whiteSpace=wrap" vertex="1" parent="1">
          <mxGeometry x="220" y="-120" width="690" height="830" as="geometry" />
        </mxCell>
        <mxCell id="5" value="" style="ellipse;shape=startState;fillColor=#000000;strokeColor=#ff0000;" vertex="1" parent="2">
          <mxGeometry x="410" y="30" width="30" height="30" as="geometry" />
        </mxCell>
        <mxCell id="6" value="" style="edgeStyle=elbowEdgeStyle;elbow=horizontal;verticalAlign=bottom;endArrow=open;endSize=8;strokeColor=#FF0000;endFill=1;rounded=0;" edge="1" parent="2" target="sspcrflbFd4XTNTOdRQj-46" source="5">
          <mxGeometry x="100" y="40" as="geometry">
            <mxPoint x="105.00000000000003" y="64.60000000000014" as="targetPoint" />
            <mxPoint x="424.28" y="50" as="sourcePoint" />
            <Array as="points">
              <mxPoint x="105.28" y="50" />
            </Array>
          </mxGeometry>
        </mxCell>
        <mxCell id="sspcrflbFd4XTNTOdRQj-66" value="" style="edgeStyle=orthogonalEdgeStyle;rounded=0;sketch=1;hachureGap=4;jiggle=2;curveFitting=1;orthogonalLoop=1;jettySize=auto;html=1;fontFamily=Architects Daughter;fontSource=https%3A%2F%2Ffonts.googleapis.com%2Fcss%3Ffamily%3DArchitects%2BDaughter;" edge="1" parent="2" source="sspcrflbFd4XTNTOdRQj-46" target="sspcrflbFd4XTNTOdRQj-65">
          <mxGeometry relative="1" as="geometry" />
        </mxCell>
        <mxCell id="sspcrflbFd4XTNTOdRQj-46" value="&lt;span style=&quot;text-wrap: nowrap;&quot;&gt;ingresar usuario y&lt;/span&gt;&lt;div&gt;&lt;span style=&quot;text-wrap: nowrap;&quot;&gt;contraseña&lt;/span&gt;&lt;/div&gt;" style="rounded=1;whiteSpace=wrap;html=1;fillColor=#ffffc0;strokeColor=#ff0000;fontColor=#000000;arcSize=40;" vertex="1" parent="2">
          <mxGeometry x="30" y="80" width="120" height="60" as="geometry" />
        </mxCell>
        <mxCell id="sspcrflbFd4XTNTOdRQj-71" value="" style="edgeStyle=orthogonalEdgeStyle;rounded=0;sketch=1;hachureGap=4;jiggle=2;curveFitting=1;orthogonalLoop=1;jettySize=auto;html=1;fontFamily=Architects Daughter;fontSource=https%3A%2F%2Ffonts.googleapis.com%2Fcss%3Ffamily%3DArchitects%2BDaughter;" edge="1" parent="2" source="sspcrflbFd4XTNTOdRQj-65" target="sspcrflbFd4XTNTOdRQj-70">
          <mxGeometry relative="1" as="geometry" />
        </mxCell>
        <mxCell id="sspcrflbFd4XTNTOdRQj-65" value="&lt;span style=&quot;text-wrap: nowrap;&quot;&gt;verificar los valores&lt;/span&gt;" style="rounded=1;whiteSpace=wrap;html=1;fillColor=#ffffc0;strokeColor=#ff0000;fontColor=#000000;arcSize=40;" vertex="1" parent="2">
          <mxGeometry x="30" y="170" width="120" height="60" as="geometry" />
        </mxCell>
        <mxCell id="sspcrflbFd4XTNTOdRQj-75" value="" style="edgeStyle=orthogonalEdgeStyle;rounded=0;sketch=1;hachureGap=4;jiggle=2;curveFitting=1;orthogonalLoop=1;jettySize=auto;html=1;fontFamily=Architects Daughter;fontSource=https%3A%2F%2Ffonts.googleapis.com%2Fcss%3Ffamily%3DArchitects%2BDaughter;" edge="1" parent="2" source="sspcrflbFd4XTNTOdRQj-70" target="sspcrflbFd4XTNTOdRQj-74">
          <mxGeometry relative="1" as="geometry" />
        </mxCell>
        <mxCell id="sspcrflbFd4XTNTOdRQj-83" value="&lt;div&gt;&lt;br&gt;&lt;/div&gt;" style="edgeLabel;html=1;align=center;verticalAlign=middle;resizable=0;points=[];sketch=1;hachureGap=4;jiggle=2;curveFitting=1;fontFamily=Architects Daughter;fontSource=https%3A%2F%2Ffonts.googleapis.com%2Fcss%3Ffamily%3DArchitects%2BDaughter;" connectable="0" vertex="1" parent="sspcrflbFd4XTNTOdRQj-75">
          <mxGeometry x="0.5248" y="-1" relative="1" as="geometry">
            <mxPoint as="offset" />
          </mxGeometry>
        </mxCell>
        <mxCell id="sspcrflbFd4XTNTOdRQj-84" value="si" style="edgeLabel;html=1;align=center;verticalAlign=middle;resizable=0;points=[];sketch=1;hachureGap=4;jiggle=2;curveFitting=1;fontFamily=Architects Daughter;fontSource=https%3A%2F%2Ffonts.googleapis.com%2Fcss%3Ffamily%3DArchitects%2BDaughter;" connectable="0" vertex="1" parent="sspcrflbFd4XTNTOdRQj-75">
          <mxGeometry x="-0.4905" y="-1" relative="1" as="geometry">
            <mxPoint as="offset" />
          </mxGeometry>
        </mxCell>
        <mxCell id="sspcrflbFd4XTNTOdRQj-81" value="" style="edgeStyle=orthogonalEdgeStyle;rounded=0;sketch=1;hachureGap=4;jiggle=2;curveFitting=1;orthogonalLoop=1;jettySize=auto;html=1;fontFamily=Architects Daughter;fontSource=https%3A%2F%2Ffonts.googleapis.com%2Fcss%3Ffamily%3DArchitects%2BDaughter;entryX=0.5;entryY=0;entryDx=0;entryDy=0;" edge="1" parent="2" source="sspcrflbFd4XTNTOdRQj-70" target="sspcrflbFd4XTNTOdRQj-109">
          <mxGeometry relative="1" as="geometry">
            <mxPoint x="150.0017647058824" y="334.9988235294117" as="sourcePoint" />
            <mxPoint x="283.1999999999998" y="342.5999999999999" as="targetPoint" />
            <Array as="points">
              <mxPoint x="283" y="320" />
              <mxPoint x="283" y="420" />
              <mxPoint x="280" y="420" />
            </Array>
          </mxGeometry>
        </mxCell>
        <mxCell id="sspcrflbFd4XTNTOdRQj-85" value="no" style="edgeLabel;html=1;align=center;verticalAlign=middle;resizable=0;points=[];sketch=1;hachureGap=4;jiggle=2;curveFitting=1;fontFamily=Architects Daughter;fontSource=https%3A%2F%2Ffonts.googleapis.com%2Fcss%3Ffamily%3DArchitects%2BDaughter;" connectable="0" vertex="1" parent="sspcrflbFd4XTNTOdRQj-81">
          <mxGeometry x="-0.5536" y="3" relative="1" as="geometry">
            <mxPoint as="offset" />
          </mxGeometry>
        </mxCell>
        <mxCell id="sspcrflbFd4XTNTOdRQj-70" value="¿Valores &lt;br&gt;correctos?" style="rhombus;whiteSpace=wrap;html=1;fillColor=#ffffc0;strokeColor=#ff0000;fontColor=#000000;rounded=1;arcSize=40;" vertex="1" parent="2">
          <mxGeometry x="30" y="280" width="120" height="80" as="geometry" />
        </mxCell>
        <mxCell id="sspcrflbFd4XTNTOdRQj-77" value="" style="edgeStyle=orthogonalEdgeStyle;rounded=0;sketch=1;hachureGap=4;jiggle=2;curveFitting=1;orthogonalLoop=1;jettySize=auto;html=1;fontFamily=Architects Daughter;fontSource=https%3A%2F%2Ffonts.googleapis.com%2Fcss%3Ffamily%3DArchitects%2BDaughter;entryX=0.548;entryY=0.109;entryDx=0;entryDy=0;entryPerimeter=0;" edge="1" parent="2" source="sspcrflbFd4XTNTOdRQj-74" target="sspcrflbFd4XTNTOdRQj-78">
          <mxGeometry relative="1" as="geometry">
            <mxPoint x="90" y="510" as="targetPoint" />
          </mxGeometry>
        </mxCell>
        <mxCell id="sspcrflbFd4XTNTOdRQj-74" value="iniciar sesión" style="whiteSpace=wrap;html=1;fillColor=#ffffc0;strokeColor=#ff0000;fontColor=#000000;rounded=1;arcSize=40;" vertex="1" parent="2">
          <mxGeometry x="30" y="410" width="120" height="60" as="geometry" />
        </mxCell>
        <mxCell id="sspcrflbFd4XTNTOdRQj-78" value="" style="ellipse;html=1;shape=endState;fillColor=#000000;strokeColor=#ff0000;sketch=1;hachureGap=4;jiggle=2;curveFitting=1;fontFamily=Architects Daughter;fontSource=https%3A%2F%2Ffonts.googleapis.com%2Fcss%3Ffamily%3DArchitects%2BDaughter;" vertex="1" parent="2">
          <mxGeometry x="75" y="500" width="30" height="30" as="geometry" />
        </mxCell>
        <mxCell id="sspcrflbFd4XTNTOdRQj-111" value="" style="edgeStyle=orthogonalEdgeStyle;rounded=0;sketch=1;hachureGap=4;jiggle=2;curveFitting=1;orthogonalLoop=1;jettySize=auto;html=1;fontFamily=Architects Daughter;fontSource=https%3A%2F%2Ffonts.googleapis.com%2Fcss%3Ffamily%3DArchitects%2BDaughter;" edge="1" parent="2" source="sspcrflbFd4XTNTOdRQj-109" target="sspcrflbFd4XTNTOdRQj-110">
          <mxGeometry relative="1" as="geometry" />
        </mxCell>
        <mxCell id="sspcrflbFd4XTNTOdRQj-115" value="si" style="edgeLabel;html=1;align=center;verticalAlign=middle;resizable=0;points=[];sketch=1;hachureGap=4;jiggle=2;curveFitting=1;fontFamily=Architects Daughter;fontSource=https%3A%2F%2Ffonts.googleapis.com%2Fcss%3Ffamily%3DArchitects%2BDaughter;" connectable="0" vertex="1" parent="sspcrflbFd4XTNTOdRQj-111">
          <mxGeometry x="-0.5558" y="5" relative="1" as="geometry">
            <mxPoint as="offset" />
          </mxGeometry>
        </mxCell>
        <mxCell id="sspcrflbFd4XTNTOdRQj-123" value="" style="edgeStyle=orthogonalEdgeStyle;rounded=0;sketch=1;hachureGap=4;jiggle=2;curveFitting=1;orthogonalLoop=1;jettySize=auto;html=1;fontFamily=Architects Daughter;fontSource=https%3A%2F%2Ffonts.googleapis.com%2Fcss%3Ffamily%3DArchitects%2BDaughter;" edge="1" parent="2" source="sspcrflbFd4XTNTOdRQj-109" target="sspcrflbFd4XTNTOdRQj-122">
          <mxGeometry relative="1" as="geometry" />
        </mxCell>
        <mxCell id="sspcrflbFd4XTNTOdRQj-127" value="no" style="edgeLabel;html=1;align=center;verticalAlign=middle;resizable=0;points=[];sketch=1;hachureGap=4;jiggle=2;curveFitting=1;fontFamily=Architects Daughter;fontSource=https%3A%2F%2Ffonts.googleapis.com%2Fcss%3Ffamily%3DArchitects%2BDaughter;" connectable="0" vertex="1" parent="sspcrflbFd4XTNTOdRQj-123">
          <mxGeometry x="-0.2333" y="3" relative="1" as="geometry">
            <mxPoint as="offset" />
          </mxGeometry>
        </mxCell>
        <mxCell id="sspcrflbFd4XTNTOdRQj-109" value="registrarse" style="rhombus;whiteSpace=wrap;html=1;fillColor=#ffffc0;strokeColor=#ff0000;fontColor=#000000;rounded=1;arcSize=40;" vertex="1" parent="2">
          <mxGeometry x="220" y="370" width="120" height="80" as="geometry" />
        </mxCell>
        <mxCell id="sspcrflbFd4XTNTOdRQj-113" value="" style="edgeStyle=orthogonalEdgeStyle;rounded=0;sketch=1;hachureGap=4;jiggle=2;curveFitting=1;orthogonalLoop=1;jettySize=auto;html=1;fontFamily=Architects Daughter;fontSource=https%3A%2F%2Ffonts.googleapis.com%2Fcss%3Ffamily%3DArchitects%2BDaughter;" edge="1" parent="2" source="sspcrflbFd4XTNTOdRQj-110" target="sspcrflbFd4XTNTOdRQj-112">
          <mxGeometry relative="1" as="geometry" />
        </mxCell>
        <mxCell id="sspcrflbFd4XTNTOdRQj-110" value="cargar datos" style="whiteSpace=wrap;html=1;fillColor=#ffffc0;strokeColor=#ff0000;fontColor=#000000;rounded=1;arcSize=40;" vertex="1" parent="2">
          <mxGeometry x="440" y="400" width="120" height="60" as="geometry" />
        </mxCell>
        <mxCell id="sspcrflbFd4XTNTOdRQj-117" value="" style="edgeStyle=orthogonalEdgeStyle;rounded=0;sketch=1;hachureGap=4;jiggle=2;curveFitting=1;orthogonalLoop=1;jettySize=auto;html=1;fontFamily=Architects Daughter;fontSource=https%3A%2F%2Ffonts.googleapis.com%2Fcss%3Ffamily%3DArchitects%2BDaughter;" edge="1" parent="2" source="sspcrflbFd4XTNTOdRQj-112" target="sspcrflbFd4XTNTOdRQj-116">
          <mxGeometry relative="1" as="geometry" />
        </mxCell>
        <mxCell id="sspcrflbFd4XTNTOdRQj-112" value="confirmar datos" style="whiteSpace=wrap;html=1;fillColor=#ffffc0;strokeColor=#ff0000;fontColor=#000000;rounded=1;arcSize=40;" vertex="1" parent="2">
          <mxGeometry x="440" y="260" width="120" height="60" as="geometry" />
        </mxCell>
        <mxCell id="sspcrflbFd4XTNTOdRQj-130" value="" style="edgeStyle=orthogonalEdgeStyle;rounded=0;sketch=1;hachureGap=4;jiggle=2;curveFitting=1;orthogonalLoop=1;jettySize=auto;html=1;fontFamily=Architects Daughter;fontSource=https%3A%2F%2Ffonts.googleapis.com%2Fcss%3Ffamily%3DArchitects%2BDaughter;" edge="1" parent="2" source="sspcrflbFd4XTNTOdRQj-116" target="sspcrflbFd4XTNTOdRQj-129">
          <mxGeometry relative="1" as="geometry" />
        </mxCell>
        <mxCell id="sspcrflbFd4XTNTOdRQj-116" value="carga exitosa" style="whiteSpace=wrap;html=1;fillColor=#ffffc0;strokeColor=#ff0000;fontColor=#000000;rounded=1;arcSize=40;" vertex="1" parent="2">
          <mxGeometry x="440" y="140" width="120" height="60" as="geometry" />
        </mxCell>
        <mxCell id="sspcrflbFd4XTNTOdRQj-132" style="edgeStyle=orthogonalEdgeStyle;rounded=0;sketch=1;hachureGap=4;jiggle=2;curveFitting=1;orthogonalLoop=1;jettySize=auto;html=1;fontFamily=Architects Daughter;fontSource=https%3A%2F%2Ffonts.googleapis.com%2Fcss%3Ffamily%3DArchitects%2BDaughter;entryX=1;entryY=0.5;entryDx=0;entryDy=0;" edge="1" parent="2" source="sspcrflbFd4XTNTOdRQj-122" target="sspcrflbFd4XTNTOdRQj-129">
          <mxGeometry relative="1" as="geometry">
            <mxPoint x="630" y="80" as="targetPoint" />
          </mxGeometry>
        </mxCell>
        <mxCell id="sspcrflbFd4XTNTOdRQj-133" value="&lt;font style=&quot;font-size: 14px;&quot;&gt;si&lt;/font&gt;" style="edgeLabel;html=1;align=center;verticalAlign=middle;resizable=0;points=[];sketch=1;hachureGap=4;jiggle=2;curveFitting=1;fontFamily=Architects Daughter;fontSource=https%3A%2F%2Ffonts.googleapis.com%2Fcss%3Ffamily%3DArchitects%2BDaughter;" connectable="0" vertex="1" parent="sspcrflbFd4XTNTOdRQj-132">
          <mxGeometry x="-0.8383" y="1" relative="1" as="geometry">
            <mxPoint as="offset" />
          </mxGeometry>
        </mxCell>
        <mxCell id="sspcrflbFd4XTNTOdRQj-122" value="¿Intentar&lt;div&gt;&amp;nbsp;nuevamente?&lt;div&gt;&lt;br&gt;&lt;/div&gt;&lt;/div&gt;" style="rhombus;whiteSpace=wrap;html=1;fillColor=#ffffc0;strokeColor=#ff0000;fontColor=#000000;rounded=1;arcSize=40;" vertex="1" parent="2">
          <mxGeometry x="210" y="540" width="120" height="80" as="geometry" />
        </mxCell>
        <mxCell id="sspcrflbFd4XTNTOdRQj-124" value="" style="ellipse;html=1;shape=endState;fillColor=#000000;strokeColor=#ff0000;sketch=1;hachureGap=4;jiggle=2;curveFitting=1;fontFamily=Architects Daughter;fontSource=https%3A%2F%2Ffonts.googleapis.com%2Fcss%3Ffamily%3DArchitects%2BDaughter;" vertex="1" parent="2">
          <mxGeometry x="270" y="730" width="30" height="30" as="geometry" />
        </mxCell>
        <mxCell id="sspcrflbFd4XTNTOdRQj-125" style="edgeStyle=orthogonalEdgeStyle;rounded=0;sketch=1;hachureGap=4;jiggle=2;curveFitting=1;orthogonalLoop=1;jettySize=auto;html=1;entryX=-0.178;entryY=0.522;entryDx=0;entryDy=0;entryPerimeter=0;fontFamily=Architects Daughter;fontSource=https%3A%2F%2Ffonts.googleapis.com%2Fcss%3Ffamily%3DArchitects%2BDaughter;" edge="1" parent="2" source="sspcrflbFd4XTNTOdRQj-122" target="sspcrflbFd4XTNTOdRQj-124">
          <mxGeometry relative="1" as="geometry" />
        </mxCell>
        <mxCell id="sspcrflbFd4XTNTOdRQj-126" value="no" style="edgeLabel;html=1;align=center;verticalAlign=middle;resizable=0;points=[];sketch=1;hachureGap=4;jiggle=2;curveFitting=1;fontFamily=Architects Daughter;fontSource=https%3A%2F%2Ffonts.googleapis.com%2Fcss%3Ffamily%3DArchitects%2BDaughter;" connectable="0" vertex="1" parent="sspcrflbFd4XTNTOdRQj-125">
          <mxGeometry x="-0.367" y="4" relative="1" as="geometry">
            <mxPoint as="offset" />
          </mxGeometry>
        </mxCell>
        <mxCell id="sspcrflbFd4XTNTOdRQj-131" style="edgeStyle=orthogonalEdgeStyle;rounded=0;sketch=1;hachureGap=4;jiggle=2;curveFitting=1;orthogonalLoop=1;jettySize=auto;html=1;entryX=1;entryY=0.25;entryDx=0;entryDy=0;fontFamily=Architects Daughter;fontSource=https%3A%2F%2Ffonts.googleapis.com%2Fcss%3Ffamily%3DArchitects%2BDaughter;" edge="1" parent="2" source="sspcrflbFd4XTNTOdRQj-129" target="sspcrflbFd4XTNTOdRQj-46">
          <mxGeometry relative="1" as="geometry" />
        </mxCell>
        <mxCell id="sspcrflbFd4XTNTOdRQj-129" value="" style="rhombus;whiteSpace=wrap;html=1;fillColor=#ffffc0;strokeColor=#ff0000;fontColor=#000000;rounded=1;arcSize=40;" vertex="1" parent="2">
          <mxGeometry x="580" y="50" width="80" height="80" as="geometry" />
        </mxCell>
        <mxCell id="C4vjSdjtiGOhjCp5dEwV-6" value="ad:&amp;nbsp; Registro de Usuario" style="shape=umlFrame;whiteSpace=wrap;html=1;pointerEvents=0;width=120;height=50;" vertex="1" parent="1">
          <mxGeometry x="210" y="-180" width="720" height="910" as="geometry" />
        </mxCell>
      </root>
    </mxGraphModel>
  </diagram>
</mxfile>
